<?xml version="1.0" ?><svg width="24px" height="24px" viewBox="0 0 24 24" fill="none" xmlns="http://www.w3.org/2000/svg"><path d="M2 6.47762C2 5.1008 2 4.4124 2.22168 3.86821C2.52645 3.12007 3.12007 2.52645 3.86821 2.22168C4.4124 2 5.1008 2 6.47762 2V2C7.85443 2 8.54284 2 9.08702 2.22168C9.83517 2.52645 10.4288 3.12007 10.7336 3.86821C10.9552 4.4124 10.9552 5.1008 10.9552 6.47762V6.47762C10.9552 7.85443 10.9552 8.54284 10.7336 9.08702C10.4288 9.83517 9.83517 10.4288 9.08702 10.7336C8.54284 10.9552 7.85443 10.9552 6.47762 10.9552V10.9552C5.1008 10.9552 4.4124 10.9552 3.86821 10.7336C3.12007 10.4288 2.52645 9.83517 2.22168 9.08702C2 8.54284 2 7.85443 2 6.47762V6.47762Z" fill="black"/><path d="M2 17.5224C2 16.1456 2 15.4572 2.22168 14.913C2.52645 14.1649 3.12007 13.5712 3.86821 13.2665C4.4124 13.0448 5.1008 13.0448 6.47762 13.0448V13.0448C7.85443 13.0448 8.54284 13.0448 9.08702 13.2665C9.83517 13.5712 10.4288 14.1649 10.7336 14.913C10.9552 15.4572 10.9552 16.1456 10.9552 17.5224V17.5224C10.9552 18.8992 10.9552 19.5876 10.7336 20.1318C10.4288 20.88 9.83517 21.4736 9.08702 21.7783C8.54284 22 7.85443 22 6.47762 22V22C5.1008 22 4.4124 22 3.86821 21.7783C3.12007 21.4736 2.52645 20.88 2.22168 20.1318C2 19.5876 2 18.8992 2 17.5224V17.5224Z" fill="black"/><path d="M13.0449 17.5224C13.0449 16.1456 13.0449 15.4572 13.2666 14.913C13.5714 14.1649 14.165 13.5712 14.9131 13.2665C15.4573 13.0448 16.1457 13.0448 17.5225 13.0448V13.0448C18.8994 13.0448 19.5878 13.0448 20.1319 13.2665C20.8801 13.5712 21.4737 14.1649 21.7785 14.913C22.0002 15.4572 22.0002 16.1456 22.0002 17.5224V17.5224C22.0002 18.8992 22.0002 19.5876 21.7785 20.1318C21.4737 20.88 20.8801 21.4736 20.1319 21.7783C19.5878 22 18.8994 22 17.5225 22V22C16.1457 22 15.4573 22 14.9131 21.7783C14.165 21.4736 13.5714 20.88 13.2666 20.1318C13.0449 19.5876 13.0449 18.8992 13.0449 17.5224V17.5224Z" fill="black"/><path clip-rule="evenodd" d="M16.7725 9.47766C16.7725 9.89187 17.1082 10.2277 17.5225 10.2277C17.9367 10.2277 18.2725 9.89187 18.2725 9.47766V7.22766H20.5225C20.9367 7.22766 21.2725 6.89187 21.2725 6.47766C21.2725 6.06345 20.9367 5.72766 20.5225 5.72766H18.2725V3.47766C18.2725 3.06345 17.9367 2.72766 17.5225 2.72766C17.1082 2.72766 16.7725 3.06345 16.7725 3.47766L16.7725 5.72766H14.5225C14.1082 5.72766 13.7725 6.06345 13.7725 6.47766C13.7725 6.89187 14.1082 7.22766 14.5225 7.22766H16.7725L16.7725 9.47766Z" fill="black" fill-rule="evenodd"/></svg>