<?xml version="1.0" encoding="iso-8859-1"?>
<!-- Generator: Adobe Illustrator 18.0.0, SVG Export Plug-In . SVG Version: 6.00 Build 0)  -->
<!DOCTYPE svg PUBLIC "-//W3C//DTD SVG 1.1//EN" "http://www.w3.org/Graphics/SVG/1.1/DTD/svg11.dtd">
<svg fill="#ffffff" version="1.1" id="Capa_1" xmlns="http://www.w3.org/2000/svg" xmlns:xlink="http://www.w3.org/1999/xlink" x="0px" y="0px"
	 viewBox="0 0 136.242 136.242" style="enable-background:new 0 0 136.242 136.242;" xml:space="preserve">
<g>
	<polygon style="fill:#FFC63F;" points="35.324,49.788 58.716,60.139 64.873,62.848 64.873,49.916 64.873,49.788 64.873,37.685 
		35.061,49.788 	"/>
	<polygon style="fill:#FFC63F;" points="101.181,49.916 100.869,49.788 101.181,49.788 70.873,37.481 70.873,49.788 70.873,49.916 
		70.873,62.957 101.224,49.933 	"/>
	<polygon style="fill:#FFFFFF;" points="117.385,33.329 81.988,19.531 71.968,31.446 106.864,45.762 	"/>
	<polygon style="fill:#FFFFFF;" points="64.274,31.446 54.254,19.531 18.857,33.329 29.378,45.762 	"/>
	<path style="fill:#FFFFFF;" d="M91.229,88.101c-0.646,0-1.286-0.208-1.818-0.613L70.873,73.374v42.362l35-15.019V81.466
		l-13.357,6.345C92.106,88.006,91.666,88.101,91.229,88.101z"/>
	<path style="fill:#FFFFFF;" d="M45.013,88.101c-0.438,0-0.877-0.096-1.287-0.29l-12.853-6.105v19.031l34,14.954V73.753
		L46.831,87.488C46.298,87.893,45.658,88.101,45.013,88.101z"/>
	<polygon style="fill:#FFFFFF;" points="74.029,68.236 91.592,81.607 127.029,64.775 108.818,53.295 	"/>
	<path style="fill:#586065;" d="M134.842,62.607l-22.416-14.131l12.253-14.479c0.626-0.739,0.856-1.735,0.618-2.675
		c-0.238-0.94-0.916-1.706-1.818-2.058L82.165,13.16c-1.197-0.469-2.559-0.119-3.385,0.864L68.121,26.698L57.462,14.024
		c-0.827-0.983-2.188-1.332-3.385-0.864L12.764,29.264c-0.903,0.351-1.58,1.118-1.818,2.058c-0.238,0.939-0.008,1.936,0.618,2.675
		l12.252,14.479L1.4,62.607c-0.925,0.584-1.459,1.625-1.395,2.717c0.065,1.092,0.719,2.062,1.707,2.531l23.16,11.001v23.839
		c0,1.189,0.703,2.268,1.792,2.746l40,17.593c0.023,0.01,0.047,0.013,0.07,0.022c0.146,0.06,0.295,0.107,0.447,0.144
		c0.048,0.011,0.096,0.022,0.145,0.031c0.181,0.033,0.362,0.057,0.546,0.057c0.179,0,0.357-0.021,0.534-0.054
		c0.05-0.009,0.099-0.021,0.148-0.032c0.143-0.034,0.284-0.078,0.421-0.132c0.026-0.011,0.054-0.015,0.08-0.025l41-17.593
		c1.102-0.473,1.817-1.558,1.817-2.757V78.617l22.656-10.762c0.988-0.47,1.643-1.44,1.708-2.531
		C136.301,64.232,135.767,63.191,134.842,62.607z M18.857,33.329l35.397-13.798l10.021,11.915L29.378,45.762L18.857,33.329z
		 M9.213,64.775l18.21-11.481l34.79,14.941L44.65,81.607L9.213,64.775z M64.873,115.691l-34-14.954V81.706l12.853,6.105
		c0.41,0.194,0.849,0.29,1.287,0.29c0.645,0,1.286-0.208,1.818-0.613l18.042-13.735V115.691z M64.873,49.788v0.128v12.933
		l-6.156-2.709L35.324,49.788h-0.263l29.812-12.103V49.788z M81.988,19.531l35.397,13.798l-10.521,12.434L71.968,31.446
		L81.988,19.531z M70.873,49.916v-0.128V37.481l30.308,12.307h-0.312l0.312,0.128l0.043,0.018L70.873,62.957V49.916z
		 M105.873,100.717l-35,15.019V73.374l18.539,14.114c0.532,0.405,1.172,0.613,1.818,0.613c0.438,0,0.877-0.096,1.287-0.29
		l13.357-6.345V100.717z M91.592,81.607L74.029,68.236l34.789-14.941l18.211,11.481L91.592,81.607z"/>
	<polygon style="fill:#FFFFFF;" points="62.213,68.236 27.423,53.295 9.213,64.775 44.65,81.607 	"/>
</g>
<g>
</g>
<g>
</g>
<g>
</g>
<g>
</g>
<g>
</g>
<g>
</g>
<g>
</g>
<g>
</g>
<g>
</g>
<g>
</g>
<g>
</g>
<g>
</g>
<g>
</g>
<g>
</g>
<g>
</g>
</svg>
