<?xml version="1.0" encoding="iso-8859-1"?>
<!-- Generator: Adobe Illustrator 19.1.0, SVG Export Plug-In . SVG Version: 6.00 Build 0)  -->
<svg fill="#ffffff" version="1.1" id="Capa_1" xmlns="http://www.w3.org/2000/svg" xmlns:xlink="http://www.w3.org/1999/xlink" x="0px" y="0px"
	 viewBox="0 0 467.2 467.2" style="enable-background:new 0 0 467.2 467.2;" xml:space="preserve">
<g>
	<g>
		<path d="M455.146,120.9l-91.7-116.3c-2.3-2.9-5.7-4.6-9.4-4.6h-240.8c-3.7,0-7.2,1.7-9.4,4.6l-91.7,116.3
			c-1.7,2.1-2.6,4.7-2.6,7.4v326.9c0,6.6,5.4,12,12,12h424.1c6.6,0,12-5.4,12-12V128.3C457.746,125.6,456.846,123,455.146,120.9z
			 M422.546,118.3h-176.9V24h102.6L422.546,118.3z M119.046,24h102.6v94.3h-176.9L119.046,24z M33.546,443.2V142.3h400.1v300.9
			L33.546,443.2L33.546,443.2z"/>
		<path d="M291.246,238.6c-4.7-4.7-12.3-4.7-17,0l-40.6,40.6l-40.6-40.6c-4.7-4.7-12.3-4.7-17,0s-4.7,12.3,0,17l40.6,40.6
			l-40.6,40.6c-4.7,4.7-4.7,12.3,0,17c2.3,2.3,5.4,3.5,8.5,3.5s6.1-1.2,8.5-3.5l40.6-40.6l40.6,40.6c2.3,2.3,5.4,3.5,8.5,3.5
			s6.1-1.2,8.5-3.5c4.7-4.7,4.7-12.3,0-17l-40.6-40.6l40.6-40.6C295.946,250.9,295.946,243.3,291.246,238.6z"/>
	</g>
</g>
<g>
</g>
<g>
</g>
<g>
</g>
<g>
</g>
<g>
</g>
<g>
</g>
<g>
</g>
<g>
</g>
<g>
</g>
<g>
</g>
<g>
</g>
<g>
</g>
<g>
</g>
<g>
</g>
<g>
</g>
</svg>
